<mxfile host="app.diagrams.net" modified="2024-05-21T13:45:06.322Z" agent="Mozilla/5.0 (Windows NT 10.0; Win64; x64) AppleWebKit/537.36 (KHTML, like Gecko) Chrome/123.0.0.0 Safari/537.36 OPR/109.0.0.0" version="24.4.4" etag="zrPc0NH3uUho2B_1ZmGw" type="github">
  <diagram name="PÃ¡gina-1" id="0aFArR9te-n6EJwCTpWG">
    <mxGraphModel>
      <root>
        <mxCell id="0" />
        <mxCell id="1" parent="0" />
      </root>
    </mxGraphModel>
  </diagram>
</mxfile>
